<?xml version="1.0" encoding="UTF-8"?>
<svg version="1.1" xmlns="http://www.w3.org/2000/svg" width="512" height="512">
<path d="M0 0 C0.81142456 0.00021149 1.62284912 0.00042297 2.4588623 0.00064087 C22.85896087 0.05349216 54.57063554 0.4670517 70.9453125 14.8046875 C73.49890229 17.73766777 73.44199474 20.67129438 73.45776367 24.37792969 C73.46414352 25.39618835 73.47052338 26.41444702 73.47709656 27.46356201 C73.47876579 29.11355194 73.47876579 29.11355194 73.48046875 30.796875 C73.48379715 31.93022278 73.48712555 33.06357056 73.49055481 34.23126221 C73.49562152 36.63203526 73.49796321 39.03281536 73.49780273 41.43359375 C73.49998302 45.09647341 73.51812461 48.7590489 73.53710938 52.421875 C73.54004462 54.7552073 73.54202854 57.08854104 73.54296875 59.421875 C73.55015427 60.51377136 73.55733978 61.60566772 73.56474304 62.73065186 C73.52565836 75.82651461 73.52565836 75.82651461 69.25 80.75 C65.3288951 82.91912186 61.7364768 83.18223413 57.3125 83.375 C57.97636719 83.95507812 58.64023437 84.53515625 59.32421875 85.1328125 C70.59474171 95.10352333 77.94192393 104.75537695 79.6171875 120.18041992 C79.74838747 123.0024618 79.78055601 125.80013259 79.75 128.625 C79.74170166 129.62571533 79.73340332 130.62643066 79.72485352 131.6574707 C79.35916607 147.82970515 74.39431294 161.19402967 63.25 173.125 C45.79047443 189.63305278 22.69810299 193.78996123 -0.625 193.6875 C-1.29803162 193.68534485 -1.97106323 193.6831897 -2.66448975 193.68096924 C-22.53630869 193.57957344 -40.80058075 190.54101185 -59.6875 184.375 C-60.37827637 184.15553711 -61.06905273 183.93607422 -61.78076172 183.70996094 C-68.51074023 181.53856166 -73.92398403 179.73322146 -77.6875 173.375 C-78.38966723 170.54925561 -78.40949875 167.82784731 -78.39453125 164.92578125 C-78.40965256 164.11368698 -78.42477386 163.30159271 -78.44035339 162.46488953 C-78.48308042 159.87214755 -78.49201392 157.28055713 -78.5 154.6875 C-78.52318367 152.99671309 -78.54855694 151.30595472 -78.57617188 149.61523438 C-78.6266016 146.23758232 -78.65418524 142.86092231 -78.66259766 139.48291016 C-78.67138943 136.00178686 -78.72250422 132.52463658 -78.80224609 129.04443359 C-78.83050898 127.33561372 -78.85867029 125.62679216 -78.88671875 123.91796875 C-78.92343437 122.73936028 -78.92343437 122.73936028 -78.96089172 121.53694153 C-79.01497212 116.92528718 -78.52350169 114.05173074 -75.6875 110.375 C-72.59918069 107.38566528 -70.17276826 106.9395993 -65.9375 106.6875 C-64.95265625 106.62175781 -63.9678125 106.55601562 -62.953125 106.48828125 C-61.83164062 106.43220703 -61.83164062 106.43220703 -60.6875 106.375 C-61.11160156 106.00890625 -61.53570312 105.6428125 -61.97265625 105.265625 C-73.62253203 94.51189351 -78.5333782 80.11813229 -79.15820312 64.59887695 C-79.36945686 48.11228331 -74.5230858 32.26727968 -63.0625 20.0625 C-45.16084582 3.4298922 -23.52073861 -0.05660071 0 0 Z M-51.6875 25.375 C-52.30238281 25.85195312 -52.91726563 26.32890625 -53.55078125 26.8203125 C-61.63686878 33.95615027 -66.75893549 45.74634826 -67.90454102 56.3918457 C-68.78403163 71.37930478 -65.78643311 83.91460831 -55.875 95.4921875 C-45.57025612 106.50330496 -31.30205115 112.12862889 -16.875 115.4375 C-14.76658492 115.9451957 -12.65850956 116.45430439 -10.55078125 116.96484375 C-9.04185303 117.32618408 -9.04185303 117.32618408 -7.50244141 117.69482422 C-3.83999876 118.57978217 -0.19879886 119.5125067 3.4375 120.5 C4.45070313 120.77070313 5.46390625 121.04140625 6.5078125 121.3203125 C11.18456198 123.07897874 14.53290698 125.20561047 17.3125 129.375 C18.03272276 133.84708083 17.89461165 137.36169453 15.625 141.3125 C9.35234077 146.90703391 0.78501893 146.66190669 -7.21875 146.59765625 C-12.74426066 146.2429782 -19.80653324 145.71007107 -24.25683594 142.10302734 C-25.98383191 140.01707555 -26.4299724 138.40826732 -27.0390625 135.77734375 C-27.25046875 134.89369141 -27.461875 134.01003906 -27.6796875 133.09960938 C-27.88851562 132.17986328 -28.09734375 131.26011719 -28.3125 130.3125 C-28.7403325 128.48784531 -29.16993471 126.66360438 -29.6015625 124.83984375 C-29.8792749 123.62735962 -29.8792749 123.62735962 -30.16259766 122.39038086 C-30.62620089 120.32481106 -30.62620089 120.32481106 -31.6875 118.375 C-43.5675 118.375 -55.4475 118.375 -67.6875 118.375 C-67.72323818 131.43079478 -67.72323818 131.43079478 -67.46875 144.47265625 C-67.44655396 145.20326767 -67.42435791 145.93387909 -67.40148926 146.68663025 C-67.33258468 148.93700364 -67.26014393 151.18724459 -67.1875 153.4375 C-67.13908347 154.99803946 -67.09090553 156.55858635 -67.04296875 158.11914062 C-66.92721066 161.87118275 -66.80829017 165.62311608 -66.6875 169.375 C-35.12832409 182.9490526 3.23026167 188.78772209 36.25 177.0625 C49.31450039 171.64315169 59.78958128 162.72581071 65.50390625 149.6484375 C70.36011666 136.28116843 70.29929869 120.37118723 64.3125 107.375 C62.60206425 104.36402582 60.68992664 101.88636617 58.3125 99.375 C57.51972656 98.50488281 57.51972656 98.50488281 56.7109375 97.6171875 C43.45387241 84.59372708 23.34904914 80.73770219 6.015625 76.26171875 C-10.76449345 71.81022444 -10.76449345 71.81022444 -14.92578125 65.49609375 C-16.35993297 61.5025328 -16.34900854 57.53980376 -15.6875 53.375 C-12.86940852 49.51018883 -10.18918002 47.78368899 -5.6875 46.375 C1.34776697 45.57278696 13.64697465 44.2661812 19.55957031 48.54101562 C21.57264597 50.647175 22.05119649 51.98343546 22.6953125 54.80078125 C22.8907666 55.64342529 23.0862207 56.48606934 23.28759766 57.35424805 C23.95381271 60.71228179 24.50588645 64.07623295 24.97460938 67.46728516 C25.23309056 69.45315484 25.23309056 69.45315484 26.3125 71.375 C37.8625 71.375 49.4125 71.375 61.3125 71.375 C62.09599905 55.01945736 62.44824222 38.74760011 62.3125 22.375 C55.11336573 19.27148628 48.01641873 16.88120805 40.375 15.1875 C39.34076904 14.95595215 39.34076904 14.95595215 38.28564453 14.71972656 C26.56035165 12.23621633 14.95340926 11.02179574 2.98120117 11.05932617 C0.87951988 11.06249319 -1.22075581 11.03887922 -3.32226562 11.01367188 C-20.78109663 10.93180416 -37.61382135 14.43183014 -51.6875 25.375 Z M-5.6875 57.375 C-5.6875 58.365 -5.6875 59.355 -5.6875 60.375 C0.87592244 64.03375889 6.86178441 66.31287671 14.3125 67.375 C14.03140887 65.72732753 13.73731474 64.08186855 13.4375 62.4375 C13.27507812 61.52097656 13.11265625 60.60445312 12.9453125 59.66015625 C12.73648438 58.90605469 12.52765625 58.15195313 12.3125 57.375 C9.34010209 55.88880105 6.61630422 56.24322991 3.3125 56.25 C2.054375 56.24742187 0.79625 56.24484375 -0.5 56.2421875 C-3.58427818 56.15272642 -3.58427818 56.15272642 -5.6875 57.375 Z M-17.6875 126.375 C-17.42356499 129.80730448 -17.42356499 129.80730448 -16.6875 133.375 C-11.54417731 136.80388179 -4.94395515 136.82652529 1.1015625 135.98828125 C3.18893609 135.52110716 5.25449764 134.95810067 7.3125 134.375 C2.64294412 128.66050853 -7.00581525 127.40336714 -14 126.625 C-15.216875 126.5425 -16.43375 126.46 -17.6875 126.375 Z " fill="#304A09" transform="translate(372.6875,186.625)"/>
<path d="M0 0 C1.00326324 -0.00571014 2.00652649 -0.01142029 3.04019165 -0.01730347 C4.14551239 -0.01842133 5.25083313 -0.01953918 6.38964844 -0.02069092 C8.13162003 -0.02813828 8.13162003 -0.02813828 9.90878296 -0.03573608 C13.77220241 -0.05040242 17.63558065 -0.05717136 21.49902344 -0.06268311 C22.83404566 -0.0654196 24.16906764 -0.06827604 25.50408936 -0.07125092 C31.79068157 -0.08494452 38.07726071 -0.09459607 44.36386681 -0.09845281 C51.58233462 -0.10290656 58.80061053 -0.12032019 66.01902008 -0.1494534 C71.61760071 -0.17124947 77.21612817 -0.18116689 82.81475067 -0.18249393 C86.14765096 -0.18353138 89.48022991 -0.19070413 92.81311035 -0.20731354 C129.08383792 -0.37498581 159.13094127 6.82204045 185.93652344 32.39044189 C212.96230159 60.39826141 218.97541401 96.24308021 218.42189026 133.83572388 C217.77830334 165.54810708 203.84068572 195.06664007 181.24902344 217.14044189 C169.07008896 227.87641182 155.56139727 235.03495364 140.24902344 240.14044189 C139.29125 240.46012939 138.33347656 240.77981689 137.34667969 241.10919189 C120.80233597 246.08493437 103.38671113 245.4663341 86.30371094 245.47637939 C83.71778288 245.48281738 81.13185554 245.48954647 78.54592896 245.49655151 C73.15852856 245.50845652 67.77119995 245.51232518 62.38378906 245.51104736 C56.16910374 245.50983937 49.95476192 245.53110214 43.74016368 245.56253469 C37.72692887 245.59185438 31.71388115 245.59902362 25.70056534 245.59782791 C23.15445666 245.60018619 20.60834534 245.60902238 18.06228256 245.62449265 C14.51339512 245.64406492 10.96540547 245.63835158 7.41650391 245.62628174 C6.36917587 245.63752075 5.32184784 245.64875977 4.24278259 245.66033936 C-1.71915703 245.60875568 -5.22488701 245.14990497 -9.75097656 241.14044189 C-12.36248844 235.91741813 -11.0646783 227.56408525 -11.10107422 221.74713135 C-11.117631 219.80625414 -11.14491744 217.86543784 -11.18310547 215.92486572 C-11.23790996 213.12530924 -11.2597532 210.32718151 -11.27441406 207.52716064 C-11.29708344 206.66241623 -11.31975281 205.79767181 -11.34310913 204.90672302 C-11.32780451 200.53546809 -11.18795393 198.70977209 -8.44726562 195.13897705 C-5.18616663 192.7217952 -2.02146105 191.70670841 1.87402344 190.82794189 C2.54175781 190.65971924 3.20949219 190.49149658 3.89746094 190.31817627 C6.75272304 189.61863705 9.29991593 189.14044189 12.24902344 189.14044189 C12.24902344 145.25044189 12.24902344 101.36044189 12.24902344 56.14044189 C3.33902344 54.16044189 3.33902344 54.16044189 -5.75097656 52.14044189 C-11.37711427 45.38907664 -11.37711427 45.38907664 -11.38208008 41.86676025 C-11.39461319 41.08252182 -11.4071463 40.29828339 -11.4200592 39.49028015 C-11.40680099 38.66198196 -11.39354279 37.83368378 -11.37988281 36.98028564 C-11.38229477 36.1127919 -11.38470673 35.24529816 -11.38719177 34.35151672 C-11.38621595 32.52517099 -11.37288557 30.69879471 -11.34790039 28.87261963 C-11.31353412 26.08261443 -11.32726821 23.29576973 -11.34667969 20.50567627 C-11.33978209 18.72636596 -11.33011048 16.9470638 -11.31738281 15.16778564 C-11.32234268 14.33746323 -11.32730255 13.50714081 -11.33241272 12.6516571 C-11.25089598 8.63105444 -11.05026141 6.61069201 -8.84057617 3.13873291 C-5.77913816 0.21106962 -4.12707321 0.01403932 0 0 Z M0.24902344 11.14044189 C0.24902344 21.37044189 0.24902344 31.60044189 0.24902344 42.14044189 C3.30152344 42.96544189 6.35402344 43.79044189 9.49902344 44.64044189 C10.45454102 44.90147705 11.41005859 45.16251221 12.39453125 45.43145752 C13.53680176 45.73599854 13.53680176 45.73599854 14.70214844 46.04669189 C15.86472168 46.36090088 15.86472168 46.36090088 17.05078125 46.68145752 C19.52734201 47.27670081 19.52734201 47.27670081 23.24902344 47.14044189 C23.24902344 96.97044189 23.24902344 146.80044189 23.24902344 198.14044189 C17.30902344 199.13044189 17.30902344 199.13044189 11.24902344 200.14044189 C7.61902344 201.13044189 3.98902344 202.12044189 0.24902344 203.14044189 C0.24902344 213.37044189 0.24902344 223.60044189 0.24902344 234.14044189 C14.6542447 234.20853435 29.05935702 234.26343961 43.46470356 234.29587841 C50.15548773 234.31125458 56.84614781 234.33254951 63.53686523 234.36676025 C70.00785134 234.39963601 76.47872579 234.41735378 82.94978905 234.42507362 C85.4042149 234.43056692 87.85863546 234.44129201 90.31301308 234.45763206 C125.08865393 234.6796975 153.28958834 228.52499286 178.74511719 203.70684814 C199.5172176 181.78274217 207.69022393 152.59634221 207.56152344 122.95294189 C207.55936829 122.27446198 207.55721313 121.59598206 207.55499268 120.89694214 C207.39461153 89.34125697 197.83788973 61.58836425 175.99902344 38.45294189 C156.72745946 20.02662196 131.71547801 10.73159743 105.14648438 10.91339111 C104.0035643 10.91309906 102.86064423 10.91280701 101.68309021 10.9125061 C97.94977916 10.91388628 94.21667411 10.92938523 90.48339844 10.94512939 C87.87738148 10.94886419 85.27136311 10.95170896 82.66534424 10.95370483 C76.53520518 10.95988649 70.40513865 10.97625173 64.27503133 10.99640381 C57.28819733 11.01886688 50.30135962 11.02978224 43.31449842 11.03979468 C28.95929495 11.06062147 14.60417665 11.09725551 0.24902344 11.14044189 Z " fill="#517719" transform="translate(70.7509765625,131.85955810546875)"/>
<path d="M0 0 C46.6272482 0 46.6272482 0 59.75 12.1875 C77.77487684 31.93724544 79.11247507 58.68820163 78 84 C76.55515762 101.77770272 71.21037538 120.03132091 57.80859375 132.5078125 C40.79795379 146.54250897 22.03921056 143 0 143 C0 95.81 0 48.62 0 0 Z M11 11 C11 50.93 11 90.86 11 132 C34.35874925 132.64178755 34.35874925 132.64178755 52.65234375 121.40625 C67.04483242 105.87847597 67.65200003 82.83130101 67.13623047 62.87646484 C66.42499891 47.8590271 62.76233193 32.02971905 52 21 C39.45170898 9.73871319 28.47405425 11 11 11 Z " fill="#4F7417" transform="translate(147,183)"/>
</svg>
