<?xml version="1.0" encoding="UTF-8"?>
<svg version="1.1" xmlns="http://www.w3.org/2000/svg" width="512" height="512">
<path d="M0 0 C98.16061213 0 98.16061213 0 113.875 6.25 C114.66181152 6.55228516 115.44862305 6.85457031 116.25927734 7.16601562 C126.59433318 11.26019809 135.45519585 16.93762776 144 24 C144.85271484 24.63421875 144.85271484 24.63421875 145.72265625 25.28125 C165.63498289 40.72154111 176.06975926 67.60952027 179.53710938 91.73754883 C180.04068376 95.9124722 180.17802791 100.04008973 180.203125 104.2421875 C180.20882507 105.00943146 180.21452515 105.77667542 180.22039795 106.56716919 C180.22978725 108.18571625 180.23635756 109.80428191 180.24023438 111.42285156 C180.24983811 113.83434936 180.28087646 116.24495511 180.3125 118.65625 C180.40886004 132.69018372 179.05277955 146.79416063 174.375 160.125 C174.12411621 160.85525391 173.87323242 161.58550781 173.61474609 162.33789062 C168.436346 176.67046546 160.05695046 189.51007264 149 200 C148.54882812 200.50660156 148.09765625 201.01320313 147.6328125 201.53515625 C131.48488662 219.16933401 106.66821128 225.97757183 84 229 C56.28 229 28.56 229 0 229 C0 153.43 0 77.86 0 0 Z M56 43 C56 90.19 56 137.38 56 186 C80.43017189 186.8345352 80.43017189 186.8345352 102 178 C103.010625 177.319375 104.02125 176.63875 105.0625 175.9375 C117.45512851 164.81855831 122.20292941 146.95215012 123.12109375 130.88034058 C123.2997129 126.14128634 123.32833917 121.4048405 123.31567383 116.6628418 C123.31251758 114.20120724 123.33605316 111.74078372 123.36132812 109.27929688 C123.44233564 89.1088037 120.33122814 69.8593813 105.90234375 54.8125 C91.86576331 41.34530466 74.72512455 43 56 43 Z " fill="#6DA628" transform="translate(83,140)"/>
<path d="M0 0 C9.18844658 9.71350067 12.625 20.6281086 12.625 34 C-5.195 34 -23.015 34 -41.375 34 C-42.365 29.545 -42.365 29.545 -43.375 25 C-45.91768276 20.09625468 -48.25161984 18.02800465 -53.375 16 C-59.83110871 14.12352938 -66.38247047 14.29588547 -72.58203125 16.96875 C-76.42537158 19.17929869 -78.74424688 21.92964564 -80.0390625 26.1796875 C-80.73264955 30.21881208 -80.59010369 32.50432628 -78.9375 36.3125 C-73.72976215 41.77427385 -66.7920552 43.69010368 -59.625 45.4375 C-58.8107959 45.64503906 -57.9965918 45.85257812 -57.15771484 46.06640625 C-52.82971352 47.16432139 -48.49074841 48.21425525 -44.1484375 49.25390625 C-25.70587675 53.69487766 -5.05861841 59.27635169 5.73828125 76.33984375 C12.83910048 89.34968642 14.48835283 101.92835497 10.5234375 116.1875 C6.4007405 129.09333408 -3.23551266 138.72011872 -15.15380859 144.92626953 C-38.83910327 156.67557284 -67.68953712 158.58267011 -93.00390625 150.8984375 C-96.20468598 149.72695968 -99.28248231 148.43141734 -102.375 147 C-103.30570312 146.58105469 -104.23640625 146.16210938 -105.1953125 145.73046875 C-119.93083862 138.4466688 -129.87273976 126.43422595 -135.6484375 111.19140625 C-135.88820313 110.46824219 -136.12796875 109.74507812 -136.375 109 C-136.57351563 108.41089844 -136.77203125 107.82179688 -136.9765625 107.21484375 C-137.57987417 103.86114065 -137.375 100.40753716 -137.375 97 C-120.875 97 -104.375 97 -87.375 97 C-86.385 100.3 -85.395 103.6 -84.375 107 C-80.62255693 112.81628676 -77.03362108 115.26134184 -70.4453125 117.34375 C-62.06791791 119.13433816 -54.04810478 118.90630789 -46.375 115 C-43.11600373 112.42710821 -41.40704076 110.03434115 -40.375 106 C-40.4461666 102.01467036 -40.90765719 99.70101421 -43.125 96.375 C-50.69721388 89.73292058 -63.17170516 87.85434486 -72.6875 85.5625 C-93.72749949 80.28050986 -115.09235362 73.75931844 -127.1953125 54.203125 C-133.01234339 43.33953089 -134.19964267 30.99345034 -131.125 19.0625 C-130.57846484 17.3627255 -129.99776722 15.67334844 -129.375 14 C-129.11976563 13.30648437 -128.86453125 12.61296875 -128.6015625 11.8984375 C-123.00658075 -0.98541956 -110.455729 -10.20198992 -97.9609375 -15.6484375 C-66.01024609 -27.69085496 -25.30151898 -24.11699094 0 0 Z " fill="#3A5B0F" transform="translate(416.375,217)"/>
</svg>
